<svg width="724" height="453" viewBox="0 0 724 453" fill="none" xmlns="http://www.w3.org/2000/svg">
<path fill-rule="evenodd" clip-rule="evenodd" d="M112.205 383.426C116.367 382.742 119.542 379.127 119.542 374.771C119.542 369.927 115.615 366 110.771 366C105.927 366 102 369.927 102 374.771C102 379.127 105.176 382.742 109.338 383.426V442.824H112.205V383.426ZM116.676 374.771C116.676 378.032 114.032 380.676 110.771 380.676C107.51 380.676 104.867 378.032 104.867 374.771C104.867 371.51 107.51 368.867 110.771 368.867C114.032 368.867 116.676 371.51 116.676 374.771Z" fill="url(#paint0_linear_340_1123)" fill-opacity="0.53"/>
<path fill-rule="evenodd" clip-rule="evenodd" d="M93.5796 212.831C98.1292 212.14 101.616 208.212 101.616 203.469C101.616 198.239 97.3761 194 92.1464 194C86.9168 194 82.6773 198.239 82.6773 203.469C82.6773 208.212 86.1636 212.14 90.713 212.83V275.503H45V317.262H47.8666V278.37H93.5796V212.831ZM98.749 203.469C98.749 207.116 95.7929 210.072 92.1464 210.072C88.4999 210.072 85.5439 207.116 85.5439 203.469C85.5439 199.823 88.4999 196.867 92.1464 196.867C95.7929 196.867 98.749 199.823 98.749 203.469Z" fill="url(#paint1_linear_340_1123)" fill-opacity="0.53"/>
<path fill-rule="evenodd" clip-rule="evenodd" d="M661.036 104.431C656.486 105.122 653 109.05 653 113.793C653 119.022 657.239 123.262 662.469 123.262C667.699 123.262 671.938 119.022 671.938 113.793C671.938 109.05 668.452 105.122 663.903 104.431L663.903 41.7587L709.616 41.7587L709.616 0L706.749 2.50602e-07L706.749 38.8922L661.036 38.8922L661.036 104.431ZM655.867 113.793C655.867 110.146 658.823 107.19 662.469 107.19C666.116 107.19 669.072 110.146 669.072 113.793C669.072 117.439 666.116 120.395 662.469 120.395C658.823 120.395 655.867 117.439 655.867 113.793Z" fill="url(#paint2_linear_340_1123)" fill-opacity="0.53"/>
<path fill-rule="evenodd" clip-rule="evenodd" d="M0 13V125.656H118.962V75.7776H184.387C184.949 80.4711 188.944 84.1096 193.789 84.1096C199.018 84.1096 203.258 79.8701 203.258 74.6405C203.258 69.4108 199.018 65.1713 193.789 65.1713C189.15 65.1713 185.29 68.5072 184.477 72.911H116.096V122.789H2.86656V13H0ZM200.391 74.6405C200.391 78.287 197.435 81.243 193.789 81.243C190.142 81.243 187.186 78.287 187.186 74.6405C187.186 70.994 190.142 68.0379 193.789 68.0379C197.435 68.0379 200.391 70.994 200.391 74.6405Z" fill="url(#paint3_linear_340_1123)" fill-opacity="0.53"/>
<path fill-rule="evenodd" clip-rule="evenodd" d="M664.426 217.338C663.742 213.176 660.127 210 655.771 210C650.927 210 647 213.927 647 218.771C647 223.615 650.927 227.542 655.771 227.542C660.127 227.542 663.742 224.367 664.426 220.205L723.824 220.205V217.338L664.426 217.338ZM655.771 212.867C659.032 212.867 661.676 215.51 661.676 218.771C661.676 222.032 659.032 224.676 655.771 224.676C652.51 224.676 649.867 222.032 649.867 218.771C649.867 215.51 652.51 212.867 655.771 212.867Z" fill="url(#paint4_linear_340_1123)" fill-opacity="0.53"/>
<path fill-rule="evenodd" clip-rule="evenodd" d="M664.469 325C669.699 325 673.938 329.239 673.938 334.469C673.938 339.314 670.3 343.309 665.606 343.871L665.606 409.296H715.484V452.562H712.618V412.162H662.74L662.74 343.781C658.336 342.968 655 339.108 655 334.469C655 329.239 659.239 325 664.469 325ZM664.469 327.867C668.116 327.867 671.072 330.823 671.072 334.469C671.072 338.116 668.116 341.072 664.469 341.072C660.823 341.072 657.867 338.116 657.867 334.469C657.867 330.823 660.823 327.867 664.469 327.867Z" fill="url(#paint5_linear_340_1123)" fill-opacity="0.53"/>
<defs>
<linearGradient id="paint0_linear_340_1123" x1="110.771" y1="366" x2="127.799" y2="442.824" gradientUnits="userSpaceOnUse">
<stop stop-color="#2B5388"/>
<stop offset="1" stop-color="white" stop-opacity="0"/>
</linearGradient>
<linearGradient id="paint1_linear_340_1123" x1="101.471" y1="194" x2="73.3078" y2="317.262" gradientUnits="userSpaceOnUse">
<stop stop-color="#2B5388"/>
<stop offset="1" stop-color="white" stop-opacity="0"/>
</linearGradient>
<linearGradient id="paint2_linear_340_1123" x1="662.173" y1="123.262" x2="720.651" y2="-3.81061e-06" gradientUnits="userSpaceOnUse">
<stop stop-color="#2B5388"/>
<stop offset="1" stop-color="white" stop-opacity="0"/>
</linearGradient>
<linearGradient id="paint3_linear_340_1123" x1="196.646" y1="66.318" x2="-38.1252" y2="60.8715" gradientUnits="userSpaceOnUse">
<stop stop-color="#2B5388"/>
<stop offset="1" stop-color="white" stop-opacity="0"/>
</linearGradient>
<linearGradient id="paint4_linear_340_1123" x1="647" y1="218.6" x2="723.824" y2="218.6" gradientUnits="userSpaceOnUse">
<stop stop-color="#2B5388"/>
<stop offset="1" stop-color="white" stop-opacity="0"/>
</linearGradient>
<linearGradient id="paint5_linear_340_1123" x1="685.242" y1="325" x2="715.771" y2="452.848" gradientUnits="userSpaceOnUse">
<stop stop-color="#2B5388"/>
<stop offset="1" stop-color="white" stop-opacity="0"/>
</linearGradient>
</defs>
</svg>
